<?xml version="1.0" encoding="UTF-8"?>
<svg version="1.1" xmlns="http://www.w3.org/2000/svg" width="621" height="610">
<path d="M0 0 C1.01078613 0.31348389 1.01078613 0.31348389 2.04199219 0.63330078 C17.63350878 5.60575053 31.27682433 13.80142297 44 24 C44.90298828 24.69029297 44.90298828 24.69029297 45.82421875 25.39453125 C50.12038881 28.76606629 53.54924514 32.80056066 57 37 C57.78761719 37.95003906 58.57523438 38.90007813 59.38671875 39.87890625 C78.89460624 63.94428862 86.73374167 93.58347478 83.77734375 124.31445312 C83.19046643 128.64164011 82.18442222 132.80198736 81 137 C80.6596875 138.22589844 80.319375 139.45179688 79.96875 140.71484375 C76.7045157 151.40079995 72.02492206 162.20793916 65 171 C66.44282059 174.44758183 68.24317911 176.28029268 71.125 178.625 C72.45281461 179.70709803 73.75453824 180.82405239 75 182 C75 182.66 75 183.32 75 184 C75.53109375 184.20625 76.0621875 184.4125 76.609375 184.625 C80.00773436 186.57961192 82.51055928 189.22123717 85.25 192 C85.80429687 192.5465625 86.35859375 193.093125 86.9296875 193.65625 C91 197.7466133 91 197.7466133 91 200 C91.55786194 200.23254486 92.11572388 200.46508972 92.69049072 200.7046814 C95.6008633 202.33700207 97.59739821 204.35820954 99.95214844 206.72509766 C100.4306575 207.20331467 100.90916656 207.68153168 101.4021759 208.17424011 C102.97603195 209.74948483 104.54269293 211.33168535 106.109375 212.9140625 C107.20181286 214.01023213 108.29469434 215.10595981 109.38800049 216.20126343 C112.25951242 219.08039888 115.12496654 221.96549056 117.98919678 224.85186768 C120.91494126 227.79809815 123.84638014 230.73865069 126.77734375 233.6796875 C132.52381482 239.44758588 138.26389806 245.22178964 144 251 C148.41015307 246.59264802 152.81327407 242.17830151 157.21614075 237.76367188 C158.92822213 236.04718985 160.6403148 234.33071908 162.35241699 232.61425781 C163.7214769 231.24170837 163.7214769 231.24170837 165.11819458 229.84143066 C185.47544753 209.43262598 205.84048644 189.03160664 226.21088301 168.635921 C229.22113118 165.62192141 232.23131349 162.60785604 235.24145508 159.59375 C235.84063327 158.99378488 236.43981146 158.39381975 237.05714657 157.77567387 C246.7683338 148.05142005 256.47420809 138.32187982 266.17814759 128.59039402 C276.14852831 118.59194792 286.12460776 108.59921446 296.10598677 98.61174774 C302.25843748 92.45518561 308.40641902 86.29422969 314.54871478 80.12753582 C318.75928846 75.90109089 322.97539003 71.68021276 327.19585279 67.46364307 C329.6290106 65.03240411 332.05968638 62.59881477 334.48381424 60.15856934 C337.11662001 57.5108252 339.75853737 54.87251462 342.40290833 52.23632812 C343.16216655 51.46833138 343.92142478 50.70033463 344.70369083 49.90906525 C351.92656697 42.74640381 359.09399019 37.31770673 369.52734375 36.8984375 C377.8978004 37.21067835 385.65197271 40.18263746 391.984375 45.7421875 C397.17488843 51.52369998 399.65774626 57.55070136 400.25 65.25 C399.39097053 78.13544199 390.93334905 86.38052079 382.16854858 95.07196045 C381.41063825 95.83157963 380.65272792 96.59119881 379.87185061 97.37383676 C377.35336601 99.89559238 374.82784345 102.41017427 372.30224609 104.92480469 C370.48625944 106.74022669 368.67071407 108.55609021 366.85557556 110.37236023 C362.95746834 114.27151208 359.0557392 118.16700834 355.15147018 122.05998993 C349.50123632 127.69390065 343.85659859 133.33339138 338.21326812 138.97421601 C329.04810866 148.1350063 319.87850016 157.29132965 310.70605469 166.44482422 C301.81276313 175.31976093 292.92157097 184.19679217 284.03320312 193.07666016 C283.48527502 193.62406281 282.93734692 194.17146547 282.37281494 194.73545608 C279.62307708 197.48258313 276.87338084 200.22975183 274.12370563 202.97694159 C255.18182913 221.90161227 236.2355411 240.82185658 217.28468323 259.73753357 C216.48609788 260.53463973 215.68751252 261.3317459 214.86472762 262.15300679 C213.3947787 263.62020754 211.92480434 265.08738278 210.4547981 266.55452609 C206.96810987 270.03459889 203.48272794 273.51596279 200 277 C129.37695313 347.62304687 129.37695313 347.62304687 127.61849976 349.38078308 C126.14906941 350.85086454 124.68206293 352.32336781 123.21533203 353.79614258 C120.15761999 356.83801679 116.97356982 359.73291675 113.78393555 362.63525391 C112.98016479 363.36687744 112.98016479 363.36687744 112.16015625 364.11328125 C111.62664551 364.59877441 111.09313477 365.08426758 110.54345703 365.58447266 C109.14107944 366.87061395 107.7551149 368.17459441 106.37109375 369.48046875 C94.5633767 380.53104975 81.39839843 389.98229532 68 399 C68.50789062 399.87398438 69.01578125 400.74796875 69.5390625 401.6484375 C73.49626241 408.64444279 76.8320746 415.6147243 79.375 423.25 C79.61299316 423.95688965 79.85098633 424.6637793 80.09619141 425.39208984 C83.41047019 435.78415793 84.36357163 445.87100266 84.3125 456.75 C84.30512817 458.6055249 84.30512817 458.6055249 84.29760742 460.49853516 C84.18393272 469.36283036 83.56570065 477.46827254 81 486 C80.64808594 487.17046875 80.29617188 488.3409375 79.93359375 489.546875 C70.28692029 518.70975584 48.54251788 542.38851196 21.51953125 556.51391602 C4.87725625 564.76736172 -13.01475251 568.40091775 -31.5 568.375 C-32.15785492 568.37445618 -32.81570984 568.37391235 -33.49349976 568.37335205 C-44.75863055 568.33069984 -55.20704178 567.25871946 -66 564 C-66.72960937 563.78569336 -67.45921875 563.57138672 -68.2109375 563.35058594 C-96.90662539 554.70412209 -119.32283685 535.30064543 -133.82275391 509.20703125 C-147.96928555 482.75508363 -150.42741254 452.4274692 -142.1796875 423.7109375 C-132.90881535 394.54759796 -114.06409476 370.65709916 -87 356 C-77.45833406 351.15161053 -66.85547166 346 -56 346 C-55.67 345.34 -55.34 344.68 -55 344 C-43.05217014 343.3120521 -31.15177554 342.78026063 -19.1875 343.3125 C-18.30553955 343.34722412 -17.4235791 343.38194824 -16.51489258 343.41772461 C-15.69915771 343.4616333 -14.88342285 343.50554199 -14.04296875 343.55078125 C-12.97598755 343.60745972 -12.97598755 343.60745972 -11.88745117 343.6652832 C-10 344 -10 344 -7 346 C-5.17283056 346.53387284 -3.34367891 347.06237809 -1.50292969 347.54736328 C9.34091147 350.40698524 19.26262251 354.75583282 28.765625 360.7421875 C31.00835913 362.24527527 31.00835913 362.24527527 34 362 C35.60887924 360.3438532 35.60887924 360.3438532 37.125 358.125 C40.47143654 353.62535171 44.08411465 349.49120094 47.8671875 345.35546875 C49.69487549 343.33697817 51.45058732 341.28361714 53.1875 339.1875 C55.85707298 336.03858381 58.79099604 333.59451384 62 331 C63.68615782 329.35305515 65.35570171 327.68873879 67 326 C67.5775 325.46375 68.155 324.9275 68.75 324.375 C70.25659086 322.90383382 70.25659086 322.90383382 71 320 C71.99 319.67 72.98 319.34 74 319 C75.33827304 317.33729713 76.67189785 315.67083819 78 314 C78.66 314 79.32 314 80 314 C80 313.34 80 312.68 80 312 C81.43343851 310.76657616 82.87268663 309.53891496 84.34765625 308.35546875 C87.5997642 305.68766389 90.41516375 302.74932145 93 299.4375 C95 297 95 297 97.625 294.9375 C99.95499392 293.03671549 100.9166732 291.75755913 102 289 C98.58749202 285.48085115 95.02927554 282.2690845 91.2578125 279.13671875 C89.3607292 277.34138213 87.73594747 275.5475676 86.05175781 273.56103516 C81.74822085 268.61890547 77.1182012 264.01981612 72.46037674 259.41577721 C70.87505015 257.84814175 69.29354917 256.2767334 67.71298218 254.70429993 C63.22380549 250.23930921 58.72897563 245.7800431 54.22949219 241.32543945 C51.46134657 238.58438047 48.69834359 235.83821923 45.93824387 233.08905983 C44.89817816 232.05511666 43.85623168 231.02306119 42.8122139 229.99310875 C36.06208209 223.333119 29.85387361 216.4644713 24 209 C19.73994602 209.78002901 16.11915158 211.11605927 12.125 212.8125 C-10.98654687 222.35520257 -36.71001325 224.06022902 -61 218 C-61.65581055 217.83902832 -62.31162109 217.67805664 -62.98730469 217.51220703 C-79.03250476 213.44424471 -93.30934121 205.55762433 -106 195 C-106.93328125 194.23042969 -107.8665625 193.46085938 -108.828125 192.66796875 C-128.44686914 175.70707123 -140.67001344 152.3880507 -145 127 C-145.18304688 125.94425781 -145.36609375 124.88851562 -145.5546875 123.80078125 C-148.84460577 95.72104021 -141.81203172 72.60061712 -129 48 C-128.34 48 -127.68 48 -127 48 C-126.73832031 47.43152344 -126.47664063 46.86304688 -126.20703125 46.27734375 C-113.71828805 22.71443991 -86.72930563 6.64660312 -62.1796875 -0.95703125 C-42.26381387 -6.25343823 -19.67549355 -6.25951221 0 0 Z M-77 68 C-87.88773721 81.78482207 -94.67373241 97.1119849 -93 115 C-89.88905922 132.79953049 -82.10132706 146.59277422 -67.3046875 157.47265625 C-52.95494749 166.98239921 -35.22339908 169.97261067 -18.328125 166.8515625 C-8.05700455 164.22350586 1.15322625 160.29481438 9 153 C9.78117187 152.29746094 10.56234375 151.59492188 11.3671875 150.87109375 C16.47492148 146.05642647 20.01968947 141.33591943 23 135 C23.36867188 134.28070313 23.73734375 133.56140625 24.1171875 132.8203125 C30.6423983 119.43648598 30.20853706 105.0184722 26 91 C22.25577418 81.50245158 17.29104281 74.09950929 10 67 C9.39800781 66.36578125 8.79601562 65.7315625 8.17578125 65.078125 C4.11773436 61.09930245 -0.35139064 58.6057035 -5.4375 56.1875 C-6.35039795 55.75207886 -6.35039795 55.75207886 -7.28173828 55.30786133 C-29.48029143 45.3223428 -60.3541304 49.49616318 -77 68 Z M-76.75 414.25 C-88.90724142 426.65977197 -93.27746496 441.14709644 -93.3190918 458.1262207 C-93.16046281 469.45233032 -90.25091961 479.47299601 -84 489 C-83.32710937 490.04027344 -83.32710937 490.04027344 -82.640625 491.1015625 C-81.49978714 492.78597605 -80.25839412 494.40149936 -79 496 C-78.34 496 -77.68 496 -77 496 C-76.77183594 496.57878906 -76.54367188 497.15757812 -76.30859375 497.75390625 C-71.31525119 506.32456885 -58.72697171 511.37681259 -49.58203125 513.96875 C-38.22772638 516.64326456 -28.33840208 516.53551668 -17 514 C-15.2984375 513.62875 -15.2984375 513.62875 -13.5625 513.25 C-5.23121341 510.32674155 3.60475075 506.2447728 10 500 C10 499.34 10 498.68 10 498 C10.85078125 497.690625 10.85078125 497.690625 11.71875 497.375 C14.81183405 495.51067537 16.52186341 492.940133 18.5 490 C18.89582275 489.41694092 19.29164551 488.83388184 19.69946289 488.2331543 C28.39717485 475.07766241 30.73083119 460.61979271 27.9375 445.1875 C24.04075295 428.7565159 14.6782252 415.65057026 0.53515625 406.4609375 C-24.13228323 392.24580288 -55.87699645 393.80174809 -76.75 414.25 Z " fill="#DDAE5C" transform="translate(182,19)"/>
<path d="M0 0 C0.92232422 0.54333984 0.92232422 0.54333984 1.86328125 1.09765625 C6.05757042 3.84114917 9.09370915 7.2387802 12.2890625 11.0703125 C13.90090816 12.88823888 15.53806395 14.36793571 17.4375 15.875 C18.283125 16.57625 19.12875 17.2775 20 18 C20 18.66 20 19.32 20 20 C20.5775 20.2475 21.155 20.495 21.75 20.75 C24.32939979 22.18299988 26.06121592 23.78424676 28 26 C28 26.66 28 27.32 28 28 C28.5529071 28.22726273 29.10581421 28.45452545 29.67547607 28.68867493 C32.68481923 30.38632454 34.75800606 32.52684242 37.19238281 34.98120117 C37.69705582 35.48718842 38.20172882 35.99317566 38.72169495 36.51449585 C40.38681876 38.18610213 42.04484788 39.86457259 43.703125 41.54296875 C44.86600366 42.7121239 46.02940303 43.88076134 47.19329834 45.04890442 C50.2588443 48.12775119 53.31878415 51.21210461 56.37713623 54.2980957 C61.25623405 59.22028414 66.14191984 64.1359079 71.03108978 69.04808998 C72.72836499 70.75548655 74.42212307 72.46631343 76.11553955 74.17753601 C81.00817437 79.10807003 85.93109486 83.9327342 91.21762085 88.44593811 C94.26834656 91.10587529 97.10119973 93.97808391 99.94921875 96.8515625 C100.5697261 97.4734848 101.19023346 98.0954071 101.82954407 98.73617554 C103.78459087 100.69674833 105.73611258 102.66078565 107.6875 104.625 C109.00562426 105.94815093 110.3239819 107.27106941 111.64257812 108.59375 C114.06223573 111.02151682 116.4805463 113.45060748 118.8972168 115.88134766 C119.42260544 116.40933456 119.94799408 116.93732147 120.48930359 117.48130798 C121.92607112 118.92567984 123.36150936 120.37137365 124.796875 121.81713867 C126.57540691 123.57931219 128.34106316 125.15416023 130.3125 126.6875 C131.199375 127.450625 132.08625 128.21375 133 129 C133 129.66 133 130.32 133 131 C133.66 131 134.32 131 135 131 C135 131.66 135 132.32 135 133 C135.56460938 133.24081299 136.12921875 133.48162598 136.7109375 133.72973633 C141.51233054 136.39416124 145.15212152 140.82587909 149 144.6875 C149.90234375 145.57373047 150.8046875 146.45996094 151.734375 147.37304688 C158.8358401 154.46925941 163.29605487 159.96054869 164.3125 170.125 C163.62789167 178.61414325 160.46359184 186.33328934 154 192 C145.69520592 198.15644966 138.30023554 198.94958788 128 198 C115.4603015 194.3996664 106.07720691 182.18986836 97.23999023 173.20410156 C96.54977783 172.50510742 95.85956543 171.80611328 95.1484375 171.0859375 C94.54177246 170.4676709 93.93510742 169.8494043 93.31005859 169.21240234 C91.34621052 167.33157469 89.34337993 165.55623452 87.28442383 163.78222656 C82.75797686 159.84586982 78.52645763 155.65310277 74.30078125 151.3984375 C73.50270554 150.59894684 72.70462982 149.79945618 71.88237 148.97573853 C69.35669936 146.44451975 66.83454043 143.90983531 64.3125 141.375 C62.60895728 139.666434 60.90518329 137.95809856 59.20117188 136.25 C55.4052929 132.44423768 51.61200174 128.63591205 47.81977844 124.82650757 C46.25401383 123.25495312 44.68643221 121.6852654 43.1171875 120.1171875 C41.68032659 118.68032659 40.24951852 117.23739225 38.82421875 115.7890625 C34.52523776 111.43506713 30.15578729 107.30389478 25.43359375 103.41015625 C24.96050781 102.94480469 24.48742187 102.47945313 24 102 C24 101.34 24 100.68 24 100 C23.38125 99.7525 22.7625 99.505 22.125 99.25 C19.64931313 97.79371361 19.04874998 96.62187494 18 94 C17.34 94 16.68 94 16 94 C16 93.34 16 92.68 16 92 C15.44050156 91.76418213 14.88100311 91.52836426 14.30455017 91.28540039 C11.44558002 89.69076323 9.45794533 87.73504681 7.12719727 85.43359375 C6.65671967 84.97143967 6.18624207 84.50928558 5.70150757 84.03312683 C4.15100667 82.50667548 2.60822718 80.9727153 1.06640625 79.4375 C-0.0144186 78.36564988 -1.09531677 77.2938737 -2.17628479 76.22216797 C-4.44197728 73.9729576 -6.70324459 71.71939608 -8.9621582 69.46337891 C-11.83953834 66.59136173 -14.73268093 63.73581654 -17.63017178 60.8841095 C-19.87025207 58.6739737 -22.09879617 56.45246836 -24.32444954 54.22781372 C-25.38515314 53.17128301 -26.44992849 52.11882219 -27.51901054 51.07077026 C-35.30529972 43.42548385 -42.4209124 35.62307324 -43.0625 24.21484375 C-42.83634095 16.20033251 -40.20515164 10.09942879 -35 4 C-24.93439167 -5.38387391 -11.96588474 -7.05917765 0 0 Z " fill="#DEAE5C" transform="translate(418,366)"/>
<path d="M0 0 C3.19119001 1.38053655 5.03343562 2.89939474 7.25 5.5625 C7.85328125 6.27277344 8.4565625 6.98304688 9.078125 7.71484375 C9.71234375 8.46894531 10.3465625 9.22304688 11 10 C15.21815225 14.92394544 19.39962373 19.49337114 24.41796875 23.60546875 C26.90985624 25.80202142 28.87645378 28.45174454 31 31 C32.72944378 32.57331344 34.50872331 34.06976943 36.3046875 35.56640625 C39.7223006 38.45641548 42.67263368 41.59897626 45.5 45.0625 C47.83011165 47.80038118 50.19291668 49.78388159 53 52 C54.875 53.9375 54.875 53.9375 56 56 C55.71540665 60.71160094 53.74130953 62.66484804 50.375 65.8125 C46.44341486 69.56947319 42.82709027 73.40262578 39.375 77.6015625 C38.694375 78.29378906 38.694375 78.29378906 38 79 C37.34 79 36.68 79 36 79 C35.505 80.485 35.505 80.485 35 82 C29.53488372 87 29.53488372 87 27 87 C27 85 27 85 28.375 83.375 C30 82 30 82 32 82 C32 81.34 32 80.68 32 80 C33.43343851 78.76657616 34.87268663 77.53891496 36.34765625 76.35546875 C39.5997642 73.68766389 42.41516375 70.74932145 45 67.4375 C47 65 47 65 49.625 62.9375 C51.95499392 61.03671549 52.9166732 59.75755913 54 57 C50.58749202 53.48085115 47.02927554 50.2690845 43.2578125 47.13671875 C41.28897273 45.27347419 39.57754338 43.38228582 37.81884766 41.32592773 C34.26484034 37.24320964 30.51077814 33.42943109 26.640625 29.6484375 C25.26403921 28.2893498 23.88774556 26.92996615 22.51171875 25.5703125 C20.37318017 23.46281007 18.23238363 21.35776132 16.08642578 19.2578125 C13.99351679 17.20730481 11.91023576 15.14740126 9.828125 13.0859375 C8.86715912 12.15290298 8.86715912 12.15290298 7.88677979 11.20101929 C4.38721345 7.72167382 1.94183226 4.62664948 0 0 Z " fill="#E7B251" transform="translate(230,251)"/>
<path d="M0 0 C3.73887947 1.29034913 6.09657707 2.72657612 8.87231445 5.53173828 C9.59268387 6.25233429 10.31305328 6.9729303 11.05525208 7.71536255 C12.19772652 8.88106277 12.19772652 8.88106277 13.36328125 10.0703125 C14.15526413 10.86654022 14.94724701 11.66276794 15.76322937 12.48312378 C18.28678951 15.02345295 20.79970836 17.57402295 23.3125 20.125 C25.02339709 21.85094612 26.7349778 23.57621485 28.44726562 25.30078125 C32.63946969 29.52603113 36.82298862 33.75973317 41 38 C41.72469482 37.27530518 42.44938965 36.55061035 43.19604492 35.80395508 C50.79736328 28.20263672 58.39868164 20.60131836 66 13 C66 16.93169105 64.60580385 18.16427228 62 21 C61.34 21 60.68 21 60 21 C59.773125 21.556875 59.54625 22.11375 59.3125 22.6875 C57.6407496 25.63296499 55.41718785 27.64324185 53 30 C52.34 30.99 51.68 31.98 51 33 C50.34 33 49.68 33 49 33 C48.773125 33.5775 48.54625 34.155 48.3125 34.75 C46.66961977 37.5663661 44.60466773 39.08077114 42 41 C36.84564704 38.81931221 32.85044511 35.17385826 29.375 30.875 C27.3460538 28.41890724 25.52036801 26.86693926 23 25 C23 24.34 23 23.68 23 23 C22.01 22.67 21.02 22.34 20 22 C20 21.34 20 20.68 20 20 C19.34 20 18.68 20 18 20 C18 19.34 18 18.68 18 18 C17.34 18 16.68 18 16 18 C14.64613064 16.34997172 13.31321858 14.6825613 12 13 C11.34 12.67 10.68 12.34 10 12 C10 11.34 10 10.68 10 10 C9.01 9.67 8.02 9.34 7 9 C7 8.34 7 7.68 7 7 C6.34 7 5.68 7 5 7 C2.375 4.625 2.375 4.625 0 2 C0 1.34 0 0.68 0 0 Z " fill="#E6B256" transform="translate(285,232)"/>
<path d="M0 0 C6.02459406 4.35026519 11.21310305 8.85224222 16 14.5625 C17.76903734 16.66097542 19.33902899 18.27122319 21.5 20 C23.63272744 21.70618195 25.09761355 23.22782671 26.8125 25.3125 C30.73199817 30.0158978 35.35472192 33.81977081 40.06640625 37.703125 C40.70449219 38.23421875 41.34257812 38.7653125 42 39.3125 C42.5775 39.78300781 43.155 40.25351562 43.75 40.73828125 C45 42 45 42 45 44 C45.66 44 46.32 44 47 44 C48.26171875 45.3203125 48.26171875 45.3203125 49.6875 47.125 C52.37669807 50.39707844 55.25738528 53.02787894 58.58203125 55.640625 C60 57 60 57 61 60 C56.60633923 59.56435128 54.22986575 56.61119952 51.31640625 53.609375 C50.77902328 53.06774719 50.24164032 52.52611938 49.68797302 51.96807861 C47.97230072 50.23564474 46.26732888 48.49309908 44.5625 46.75 C43.41931658 45.59175978 42.27544338 44.43419992 41.13085938 43.27734375 C39.01594538 41.13798376 36.90521234 38.99467658 34.79907227 36.84667969 C32.21324834 34.21687533 29.61041038 31.60536231 27 29 C26.28199219 28.27039063 25.56398438 27.54078125 24.82421875 26.7890625 C20.52523776 22.43506713 16.15578729 18.30389478 11.43359375 14.41015625 C10.96050781 13.94480469 10.48742187 13.47945313 10 13 C10 12.34 10 11.68 10 11 C9.38125 10.7525 8.7625 10.505 8.125 10.25 C5.64931313 8.79371361 5.04874998 7.62187494 4 5 C3.34 5 2.68 5 2 5 C2 4.34 2 3.68 2 3 C1.34 3 0.68 3 0 3 C0 2.01 0 1.02 0 0 Z " fill="#E5B151" transform="translate(432,455)"/>
<path d="M0 0 C4.51476363 0.99860506 9.02778692 2.0036337 13.53515625 3.03515625 C14.28216797 3.20466797 15.02917969 3.37417969 15.79882812 3.54882812 C17.31250339 3.89231095 18.82552568 4.23868361 20.33789062 4.58789062 C29.99672833 6.76676413 39.11182467 7.13037026 49 7.0625 C50.25167969 7.05798828 51.50335938 7.05347656 52.79296875 7.04882812 C55.86202941 7.03711415 58.93098907 7.02071073 62 7 C61.01 7.33 60.02 7.66 59 8 C59 8.66 59 9.32 59 10 C42.20000157 10.43484316 26.31301278 10.6127611 10 6 C9.01833862 5.75032471 9.01833862 5.75032471 8.0168457 5.49560547 C3.2234178 4.24503888 3.2234178 4.24503888 1.0625 1.875 C0.711875 1.25625 0.36125 0.6375 0 0 Z " fill="#E4AD50" transform="translate(106,577)"/>
<path d="M0 0 C15.24159021 -0.7706422 15.24159021 -0.7706422 22 4 C22.845625 4.5775 23.69125 5.155 24.5625 5.75 C27.35937126 8.33172731 29.75742002 11.13661634 32.21875 14.03515625 C33.86226593 15.84806965 35.52564733 17.35543785 37.4375 18.875 C38.283125 19.57625 39.12875 20.2775 40 21 C40 21.66 40 22.32 40 23 C40.5775 23.2475 41.155 23.495 41.75 23.75 C44.32939979 25.18299988 46.06121592 26.78424676 48 29 C48 29.66 48 30.32 48 31 C48.598125 31.226875 49.19625 31.45375 49.8125 31.6875 C52.56351888 33.33811133 53.52484637 35.1972081 55 38 C52 38 52 38 49.4375 35.75 C47 33 47 33 45.9375 30.8125 C44.72658139 28.47139069 43.39822186 27.95928874 41 27 C41 26.34 41 25.68 41 25 C40.34 25 39.68 25 39 25 C39 24.34 39 23.68 39 23 C38.34 23 37.68 23 37 23 C34.77971602 20.92135483 32.69781403 18.74235011 30.61523438 16.52685547 C21.09556171 6.41796379 14.34412463 1.53622896 0 1 C0 0.67 0 0.34 0 0 Z " fill="#E6B050" transform="translate(398,363)"/>
<path d="M0 0 C8.34315767 -0.64917942 14.84169842 -0.73322906 21.875 4.1484375 C25.19624129 7.04231319 27.7401948 10.22856835 30 14 C30.37898437 14.62132813 30.75796875 15.24265625 31.1484375 15.8828125 C32.24480202 18.60863621 32.194697 20.82272587 32.125 23.75 C32.10695313 24.73484375 32.08890625 25.7196875 32.0703125 26.734375 C32.04710937 27.48203125 32.02390625 28.2296875 32 29 C31.67 29 31.34 29 31 29 C30.82984375 28.20335938 30.6596875 27.40671875 30.484375 26.5859375 C29.09687993 20.51933672 27.81299529 15.91999392 24 11 C23.5359375 9.88625 23.5359375 9.88625 23.0625 8.75 C21.52516901 6.21792543 19.77016875 5.90191541 17 5 C16.24976563 4.67515625 15.49953125 4.3503125 14.7265625 4.015625 C11.71250336 2.89290956 8.86388484 2.36367459 5.6875 1.875 C4.61886719 1.70742188 3.55023437 1.53984375 2.44921875 1.3671875 C1.64097656 1.24601562 0.83273437 1.12484375 0 1 C0 0.67 0 0.34 0 0 Z " fill="#E3AC4F" transform="translate(549,58)"/>
<path d="M0 0 C1.12019531 -0.01417969 2.24039063 -0.02835938 3.39453125 -0.04296875 C6.1875 0.1875 6.1875 0.1875 8.1875 2.1875 C6.81198975 2.34569214 6.81198975 2.34569214 5.40869141 2.50708008 C1.95985725 2.90810225 -1.4878205 3.31725299 -4.93505859 3.73168945 C-6.41840563 3.90838557 -7.90212732 4.08196869 -9.38623047 4.25219727 C-17.75741007 5.21462891 -25.83867818 6.30570299 -33.8125 9.1875 C-30.49920038 5.10366558 -26.95617991 4.08459339 -22 3 C-21.31357422 2.83564453 -20.62714844 2.67128906 -19.91992188 2.50195312 C-13.30281779 0.95566674 -6.80949946 0.0396362 0 0 Z " fill="#E5B155" transform="translate(142.8125,14.8125)"/>
<path d="M0 0 C3.89847637 1.25308169 5.32387662 3.6699222 7.18359375 7.20703125 C10.6891535 14.90584429 8.87404466 22.13199702 6.16796875 29.7421875 C5 32 5 32 2 33 C2.2165625 32.48953125 2.433125 31.9790625 2.65625 31.453125 C5.48957937 24.05498719 6.83318332 15.57554156 3.625 8.0625 C3.08875 7.051875 2.5525 6.04125 2 5 C1.32723284 3.3357865 0.65793165 1.67013418 0 0 Z " fill="#E3B051" transform="translate(573,519)"/>
<path d="M0 0 C0.33 0 0.66 0 1 0 C1.82532094 16.17629042 -0.66390336 29.22543119 -10 43 C-10.99 43.66 -11.98 44.32 -13 45 C-12.52468672 41.07866542 -11.11746717 38.31005363 -9.109375 34.94140625 C-2.73278707 23.78237737 -0.53289379 12.75269959 0 0 Z " fill="#E4B254" transform="translate(212,121)"/>
<path d="M0 0 C3.22652525 0.3176372 4.67830592 0.68203931 7.01953125 2.99609375 C7.61121094 3.80175781 8.20289063 4.60742188 8.8125 5.4375 C9.41707031 6.24058594 10.02164063 7.04367188 10.64453125 7.87109375 C12 10 12 10 12 12 C12.99 12.33 13.98 12.66 15 13 C16.71108689 14.62102968 18.37253306 16.29503463 20 18 C20.928125 18.928125 21.85625 19.85625 22.8125 20.8125 C23.534375 21.534375 24.25625 22.25625 25 23 C24.67 23.66 24.34 24.32 24 25 C23.278125 24.236875 22.55625 23.47375 21.8125 22.6875 C19.23276957 20.00618987 19.23276957 20.00618987 16.62109375 18.640625 C13.63475654 16.77138263 11.59843152 14.68281369 9.25 12.0625 C8.47140625 11.20785156 7.6928125 10.35320312 6.890625 9.47265625 C5.13107313 7.17142416 4.39301015 5.8231229 4 3 C2.35 2.67 0.7 2.34 -1 2 C-0.67 1.34 -0.34 0.68 0 0 Z " fill="#E3AB50" transform="translate(203,224)"/>
<path d="M0 0 C0.99 0.66 1.98 1.32 3 2 C1.89205078 2.52787109 1.89205078 2.52787109 0.76171875 3.06640625 C-5.59771853 6.16127852 -11.61370699 9.50673083 -17.52734375 13.38671875 C-24.59806295 18 -24.59806295 18 -28 18 C-19.79779822 10.37004486 -10.10522367 4.75539937 0 0 Z " fill="#E5B153" transform="translate(103,371)"/>
<path d="M0 0 C-0.4940332 0.25692627 -0.98806641 0.51385254 -1.49707031 0.77856445 C-3.74998765 1.95286194 -6.00000047 3.1326222 -8.25 4.3125 C-9.41595703 4.91868164 -9.41595703 4.91868164 -10.60546875 5.53710938 C-14.30737991 7.48298575 -17.67193015 9.45452083 -21 12 C-21.66 12 -22.32 12 -23 12 C-23 12.66 -23 13.32 -23 14 C-24.62626404 15.38232443 -26.2925002 16.71937515 -28 18 C-28.66 17.67 -29.32 17.34 -30 17 C-26.81123515 12.4953651 -23.24270545 9.82753158 -18.6875 6.875 C-18.04876953 6.44574219 -17.41003906 6.01648438 -16.75195312 5.57421875 C-5.58965999 -1.77683549 -5.58965999 -1.77683549 0 0 Z " fill="#E5AF52" transform="translate(108,25)"/>
<path d="M0 0 C0 0.33 0 0.66 0 1 C-13.2 1.66 -26.4 2.32 -40 3 C-36.65018124 0.7667875 -35.18766099 0.69988127 -31.25 0.5 C-27.70524081 0.27130586 -24.95524664 -0.01464655 -21.5625 -1.125 C-14.55661973 -2.84574252 -6.98726045 -1.51953434 0 0 Z " fill="#E8AD4B" transform="translate(164,364)"/>
<path d="M0 0 C2.475 0.495 2.475 0.495 5 1 C5 1.66 5 2.32 5 3 C5.66 3 6.32 3 7 3 C7 3.66 7 4.32 7 5 C7.54269531 5.21914063 8.08539062 5.43828125 8.64453125 5.6640625 C11.78409373 7.44470987 14.16456637 9.8353582 16.6875 12.375 C17.18572266 12.85710937 17.68394531 13.33921875 18.19726562 13.8359375 C20.75804264 16.39323992 22.62405193 18.31046316 23 22 C22.34 22 21.68 22 21 22 C19.44921875 20.42578125 19.44921875 20.42578125 17.6875 18.3125 C12.79923753 12.58108753 7.47694483 7.60478736 1.79296875 2.671875 C1.20128906 2.12015625 0.60960937 1.5684375 0 1 C0 0.67 0 0.34 0 0 Z " fill="#E5B052" transform="translate(546,494)"/>
<path d="M0 0 C-1.44740662 3.51533651 -3.20638802 5.21001197 -6.24609375 7.453125 C-7.08333984 8.071875 -7.92058594 8.690625 -8.78320312 9.328125 C-9.65912109 9.96234375 -10.53503906 10.5965625 -11.4375 11.25 C-12.30955078 11.8996875 -13.18160156 12.549375 -14.08007812 13.21875 C-20.6141183 18 -20.6141183 18 -24 18 C-24 17.34 -24 16.68 -24 16 C-22.44101062 14.91142134 -20.82399356 13.90566332 -19.1875 12.9375 C-13.78445716 9.62008769 -9.01815964 5.85061352 -4.21484375 1.72265625 C-2 0 -2 0 0 0 Z " fill="#E4AF52" transform="translate(273,399)"/>
<path d="M0 0 C6.2576705 2.40679635 10.68674344 6.94869732 15 12 C15 12.66 15 13.32 15 14 C15.99 14.33 16.98 14.66 18 15 C19.6875 18.0625 19.6875 18.0625 21 21 C17.40310801 19.66781778 15.63252822 17.4773056 13.2890625 14.515625 C11.44495372 12.34740013 9.25005249 10.73080961 7 9 C4.6875 6.875 4.6875 6.875 3 5 C3 4.34 3 3.68 3 3 C2.01 2.67 1.02 2.34 0 2 C0 1.34 0 0.68 0 0 Z " fill="#E6AF54" transform="translate(258,205)"/>
<path d="M0 0 C0.66 0 1.32 0 2 0 C0.52814886 9.14097026 -1.68539536 18.04495196 -4 27 C-4.33 27 -4.66 27 -5 27 C-5.93384391 17.20501495 -3.19666604 9.09908155 0 0 Z " fill="#E3AB53" transform="translate(43,88)"/>
<path d="M0 0 C0.33 0.99 0.66 1.98 1 3 C-0.58984375 5.63671875 -0.58984375 5.63671875 -2.9375 8.6875 C-3.54742798 9.48172363 -3.54742798 9.48172363 -4.16967773 10.29199219 C-7.7636532 14.88526136 -11.72126992 19.03605387 -16 23 C-16.99 22.67 -17.98 22.34 -19 22 C-18.154375 21.34 -17.30875 20.68 -16.4375 20 C-10.29070232 14.85587144 -5.78943751 9.01747688 -2 2 C-1.34 1.34 -0.68 0.68 0 0 Z " fill="#E3AD51" transform="translate(247,533)"/>
<path d="M0 0 C0.99 0.495 0.99 0.495 2 1 C3.40129861 5.540917 3.14791505 10.29477624 3.125 15 C3.12886719 15.7940625 3.13273438 16.588125 3.13671875 17.40625 C3.13005759 21.4029478 2.99085908 25.09947535 2 29 C1.67 29 1.34 29 1 29 C-0.19148936 9.65957447 -0.19148936 9.65957447 0 0 Z " fill="#E1AA51" transform="translate(210,460)"/>
<path d="M0 0 C0.33 0 0.66 0 1 0 C1.04898438 1.26714844 1.09796875 2.53429687 1.1484375 3.83984375 C1.22354191 5.53908096 1.29908632 7.23829876 1.375 8.9375 C1.4059375 9.76830078 1.436875 10.59910156 1.46875 11.45507812 C1.70350467 16.48274066 2.33292099 21.15579171 3.57226562 26.03710938 C4.15484484 28.71058932 4.13961935 31.27742267 4 34 C1 32 1 32 0.31860352 29.26708984 C0.00585667 26.06005672 -0.113605 22.94820927 -0.09765625 19.7265625 C-0.09443359 18.57285156 -0.09121094 17.41914063 -0.08789062 16.23046875 C-0.07951172 15.04066406 -0.07113281 13.85085937 -0.0625 12.625 C-0.05798828 11.41199219 -0.05347656 10.19898438 -0.04882812 8.94921875 C-0.03708354 5.96609493 -0.0206584 2.98307321 0 0 Z " fill="#E4AD4F" transform="translate(37,120)"/>
<path d="M0 0 C3.33646536 1.4163551 5.15544293 3.08171998 7.4375 5.875 C10.0692257 9.00477271 12.79470909 11.45462192 16 14 C16.33 14.99 16.66 15.98 17 17 C13.02459608 16.45666461 11.19220992 14.56530421 8.4375 11.75 C7.67308594 10.98171875 6.90867187 10.2134375 6.12109375 9.421875 C3.56299446 6.50102498 1.73036395 3.46072791 0 0 Z " fill="#E6AF4F" transform="translate(408,431)"/>
<path d="M0 0 C0 0.33 0 0.66 0 1 C-5.84888043 2.01894076 -11.50919169 2.11798453 -17.4375 2.0625 C-18.35982422 2.05798828 -19.28214844 2.05347656 -20.23242188 2.04882812 C-22.48835048 2.03713938 -24.74413967 2.02075455 -27 2 C-27.33 1.34 -27.66 0.68 -28 0 C-18.89161972 -2.12136029 -9.20139995 -1.16315665 0 0 Z " fill="#E3AD49" transform="translate(165,535)"/>
<path d="M0 0 C3.38810709 0.58133369 5.00137969 1.64073688 7.3828125 4.08984375 C8.29740234 5.01893555 8.29740234 5.01893555 9.23046875 5.96679688 C9.85566406 6.61712891 10.48085938 7.26746094 11.125 7.9375 C11.75792969 8.58396484 12.39085937 9.23042969 13.04296875 9.89648438 C14.21585075 11.09551342 15.38562618 12.29759478 16.55126953 13.50366211 C17.68994759 14.67975881 18.84246141 15.84246141 20 17 C18.68 17 17.36 17 16 17 C14.61910767 15.37251976 13.29786393 13.69443347 12 12 C10.68770615 10.80971695 9.35238959 9.6445223 8 8.5 C4.94345793 5.89395574 2.37424817 3.26459124 0 0 Z " fill="#E6B252" transform="translate(522,470)"/>
<path d="M0 0 C0.33 0 0.66 0 1 0 C2.00183167 6.14917369 2.42353389 12.2812187 2.75 18.5 C2.81832031 19.50675781 2.88664062 20.51351562 2.95703125 21.55078125 C3.26617165 27.59883581 2.9132344 31.65406472 0 37 C-1.41812087 34.16375826 -0.64350665 31.84032574 -0.26220703 28.78564453 C0.24945262 23.34985629 0.10174249 17.89220561 0.0625 12.4375 C0.05798828 11.23802734 0.05347656 10.03855469 0.04882812 8.80273438 C0.03713769 5.86843641 0.02075138 2.93424551 0 0 Z " fill="#E4AB46" transform="translate(263,111)"/>
<path d="M0 0 C3 1 3 1 4.38671875 3.6953125 C8.69218023 15.04724999 8.69218023 15.04724999 8 21 C5.55530511 18.55530511 5.05427409 16.59475176 4 13.3125 C3.65453125 12.24128906 3.3090625 11.17007812 2.953125 10.06640625 C1.91395131 6.72316304 0.92114024 3.37751422 0 0 Z " fill="#E2AD50" transform="translate(254,430)"/>
<path d="M0 0 C0.66 0 1.32 0 2 0 C2.02690844 2.62506802 2.04679404 5.24986173 2.0625 7.875 C2.07087891 8.62136719 2.07925781 9.36773437 2.08789062 10.13671875 C2.11328125 15.7734375 2.11328125 15.7734375 1 18 C0.34 18 -0.32 18 -1 18 C-0.505 9.09 -0.505 9.09 0 0 Z " fill="#E3B751" transform="translate(36,459)"/>
<path d="M0 0 C0.33 0.66 0.66 1.32 1 2 C0.55269531 2.54527344 0.10539062 3.09054687 -0.35546875 3.65234375 C-4.51737881 8.84363881 -7.96361916 14.08115623 -11 20 C-12.05424115 17.31478577 -12.12687274 16.2933336 -10.9609375 13.59765625 C-7.9952275 8.85690307 -5.19474229 4.71534317 -1 1 C-0.67 0.67 -0.34 0.34 0 0 Z " fill="#E3AE4D" transform="translate(61,405)"/>
<path d="M0 0 C6.69913606 -0.60901237 12.9338493 1.13914975 19 4 C19.33 4.99 19.66 5.98 20 7 C12.86492582 6.24893956 6.32896085 3.25197758 0 0 Z " fill="#E6B250" transform="translate(175,19)"/>
<path d="M0 0 C0.66 0 1.32 0 2 0 C1.81824219 0.58265625 1.63648438 1.1653125 1.44921875 1.765625 C-0.60235511 8.45691206 -2.35228894 15.19880965 -4 22 C-4.33 22 -4.66 22 -5 22 C-4.74809356 13.85082664 -3.99450062 7.19010111 0 0 Z " fill="#E1AC4F" transform="translate(45,430)"/>
<path d="M0 0 C0 0.33 0 0.66 0 1 C-0.67804688 1.00257813 -1.35609375 1.00515625 -2.0546875 1.0078125 C-8.98838321 1.2959162 -13.30612321 2.86377196 -19.00390625 6.8203125 C-19.66261719 7.20960938 -20.32132812 7.59890625 -21 8 C-21.66 7.67 -22.32 7.34 -23 7 C-16.16399266 -0.6402435 -9.69616097 -0.28241246 0 0 Z " fill="#E6B65B" transform="translate(409,362)"/>
<path d="M0 0 C2.43645812 2.43645812 2.74141663 4.61715856 3.4921875 7.90625 C4.01764826 10.21772956 4.01764826 10.21772956 5.125 13.25 C6 16 6 16 6 20 C5.34 20 4.68 20 4 20 C1.05602409 13.34405447 0.35000997 7.24158565 0 0 Z " fill="#E1AD4D" transform="translate(40,500)"/>
<path d="M0 0 C7.40774509 1.39304941 14.70170537 3.11899623 22 5 C22 5.33 22 5.66 22 6 C20.41676312 6.027193 18.83338938 6.04648306 17.25 6.0625 C15.92742187 6.07990234 15.92742187 6.07990234 14.578125 6.09765625 C12.2181162 6.00826198 10.25501476 5.66912821 8 5 C8 4.34 8 3.68 8 3 C7.05125 2.87625 6.1025 2.7525 5.125 2.625 C2 2 2 2 0 0 Z " fill="#E2AB4D" transform="translate(109,231)"/>
<path d="M0 0 C0.93134766 0.00322266 1.86269531 0.00644531 2.82226562 0.00976562 C4.26182617 0.02233398 4.26182617 0.02233398 5.73046875 0.03515625 C6.70951172 0.03966797 7.68855469 0.04417969 8.69726562 0.04882812 C11.10422986 0.06056941 13.51106732 0.07699206 15.91796875 0.09765625 C12.04277564 3.97284936 5.16541315 2.97613648 -0.08203125 3.09765625 C-3.44580946 2.92237252 -6.75143419 2.59647839 -10.08203125 2.09765625 C-10.08203125 1.76765625 -10.08203125 1.43765625 -10.08203125 1.09765625 C-6.65629188 0.32237146 -3.5096388 -0.02153153 0 0 Z " fill="#E9B247" transform="translate(151.08203125,185.90234375)"/>
<path d="M0 0 C4.95 0 9.9 0 15 0 C12.15385976 2.84614024 9.19630858 2.45579076 5.375 2.625 C4.31539062 2.68300781 4.31539062 2.68300781 3.234375 2.7421875 C1.49001476 2.83647724 -0.25495691 2.91932891 -2 3 C-2 3.66 -2 4.32 -2 5 C-4.97 4.505 -4.97 4.505 -8 4 C-4.91190305 2.23537317 -3.76687864 2 0 2 C0 1.34 0 0.68 0 0 Z " fill="#E7B664" transform="translate(126,363)"/>
<path d="M0 0 C0.33 0 0.66 0 1 0 C1.05437005 2.85442753 1.09384974 5.70780076 1.125 8.5625 C1.15013672 9.76229492 1.15013672 9.76229492 1.17578125 10.98632812 C1.21723982 16.06500335 0.64056075 20.18811906 -1 25 C-1.33 25 -1.66 25 -2 25 C-2.125 17.375 -2.125 17.375 -1 14 C-0.77439324 11.60745424 -0.59151405 9.21071877 -0.4375 6.8125 C-0.35371094 5.54019531 -0.26992187 4.26789063 -0.18359375 2.95703125 C-0.12300781 1.98121094 -0.06242188 1.00539063 0 0 Z " fill="#E1A94D" transform="translate(212,121)"/>
<path d="M0 0 C3.05001831 3.66002197 7 9.07851471 7 14 C3.36713045 12.78904348 2.56993248 11.20640617 0.78515625 7.921875 C-0.31643358 5.22544616 -0.27986167 2.86858211 0 0 Z " fill="#E0AB50" transform="translate(47,520)"/>
<path d="M0 0 C-1.36508501 3.11728368 -2.86919698 5.08663738 -5.4375 7.3125 C-6.03433594 7.84488281 -6.63117188 8.37726563 -7.24609375 8.92578125 C-7.82488281 9.28027344 -8.40367187 9.63476562 -9 10 C-9.99 9.67 -10.98 9.34 -12 9 C-10.38050958 7.49405319 -8.75424026 5.99539332 -7.125 4.5 C-6.22007812 3.6646875 -5.31515625 2.829375 -4.3828125 1.96875 C-2 0 -2 0 0 0 Z " fill="#E5B053" transform="translate(291,384)"/>
<path d="M0 0 C-1.44077046 3.36179774 -3.24750021 5.59156268 -6 8 C-6.66 8 -7.32 8 -8 8 C-8.33 8.99 -8.66 9.98 -9 11 C-9.33 10.01 -9.66 9.02 -10 8 C-4.12244898 0 -4.12244898 0 0 0 Z " fill="#E5B14D" transform="translate(243,353)"/>
<path d="M0 0 C4.74018901 1.83491188 9.36413251 3.91941459 14 6 C12.29296875 7.13671875 12.29296875 7.13671875 10 8 C7.67578125 7.20703125 7.67578125 7.20703125 5.3125 5.8125 C4.52488281 5.36519531 3.73726563 4.91789063 2.92578125 4.45703125 C1 3 1 3 0 0 Z " fill="#E4AC4F" transform="translate(89,569)"/>
<path d="M0 0 C4.77609498 1.64178265 8.79382904 4.26546702 13 7 C11.296875 7.7109375 11.296875 7.7109375 9 8 C6.640625 6.6015625 6.640625 6.6015625 4.25 4.625 C3.45078125 3.97789062 2.6515625 3.33078125 1.828125 2.6640625 C1.22484375 2.11492187 0.6215625 1.56578125 0 1 C0 0.67 0 0.34 0 0 Z " fill="#E5AE53" transform="translate(79,215)"/>
<path d="M0 0 C5.28 0 10.56 0 16 0 C16 0.66 16 1.32 16 2 C17.32 2.33 18.64 2.66 20 3 C18.741875 2.855625 17.48375 2.71125 16.1875 2.5625 C10.79870505 1.96183814 5.40116209 1.47449461 0 1 C0 0.67 0 0.34 0 0 Z " fill="#E6B054" transform="translate(154,16)"/>
<path d="M0 0 C3.36943872 0.60168549 5.49075874 1.65804149 8 4 C9.25 6.6875 9.25 6.6875 10 9 C7.42262834 7.96905133 6.23715753 7.4891374 5 4.9375 C4.1704178 2.78719721 4.1704178 2.78719721 1.875 2.25 C0.946875 2.12625 0.946875 2.12625 0 2 C0 1.34 0 0.68 0 0 Z " fill="#E6AF50" transform="translate(245,193)"/>
<path d="M0 0 C0 4.24645065 -1.81750806 6.38524772 -4 10 C-5.32 9.67 -6.64 9.34 -8 9 C-7.34 9 -6.68 9 -6 9 C-5.7525 8.443125 -5.505 7.88625 -5.25 7.3125 C-3.78393985 4.60028873 -1.97010529 2.36412635 0 0 Z " fill="#E4B253" transform="translate(61,58)"/>
<path d="M0 0 C4.12989477 4.26311718 4.61271765 7.28758534 5 13 C3 10 3 10 3 8 C2.34 8 1.68 8 1 8 C0.67 5.36 0.34 2.72 0 0 Z " fill="#E3AC4F" transform="translate(206,102)"/>
<path d="M0 0 C-1.63412443 1.70840281 -2.86906094 2.93453047 -5 4 C-6.99960012 4.039992 -9.00047242 4.04346799 -11 4 C-9.71264403 1.42528807 -8.71510189 1.29583343 -6.0625 0.3125 C-5.35222656 0.04050781 -4.64195312 -0.23148438 -3.91015625 -0.51171875 C-2 -1 -2 -1 0 0 Z " fill="#E5AA51" transform="translate(201,575)"/>
<path d="M0 0 C2 0 2 0 4.375 2.1875 C6.72570111 4.70610834 8.89676626 7.27358589 11 10 C1.65625 5.6875 1.65625 5.6875 0.125 1.75 C0.08375 1.1725 0.0425 0.595 0 0 Z " fill="#E4A94A" transform="translate(498,520)"/>
<path d="M0 0 C0.99 0.33 1.98 0.66 3 1 C0.03 4.96 0.03 4.96 -3 9 C-3.66 8.67 -4.32 8.34 -5 8 C-3.62845496 5.04590299 -2.01136276 2.55991624 0 0 Z " fill="#E5AF54" transform="translate(100,436)"/>
<path d="M0 0 C6.625 -0.125 6.625 -0.125 10 1 C10.33 1.99 10.66 2.98 11 4 C9.53984709 3.71758359 8.08190207 3.42373386 6.625 3.125 C5.81289062 2.96257812 5.00078125 2.80015625 4.1640625 2.6328125 C2 2 2 2 0 0 Z " fill="#E5B449" transform="translate(124,183)"/>
<path d="M0 0 C-1.65519326 3.31038651 -4.65442221 3.78867011 -8 5 C-8.99 4.67 -9.98 4.34 -11 4 C-7.20307814 1.17438373 -4.81430721 -0.56638908 0 0 Z " fill="#E5AB50" transform="translate(181,528)"/>
<path d="M0 0 C0.33 0.99 0.66 1.98 1 3 C-1.31 4.98 -3.62 6.96 -6 9 C-5.69381595 5.32579134 -5.24228216 4.21864487 -2.4375 1.6875 C-1.633125 1.130625 -0.82875 0.57375 0 0 Z " fill="#E5B14C" transform="translate(252,342)"/>
<path d="M0 0 C0.33 0.99 0.66 1.98 1 3 C-1.64 4.65 -4.28 6.3 -7 8 C-4.9957983 3.9915966 -3.50944037 2.58590343 0 0 Z " fill="#E4AC50" transform="translate(513,161)"/>
<path d="M0 0 C0.33 0 0.66 0 1 0 C1.36923077 7.38461538 1.36923077 7.38461538 -0.5 10.5 C-0.995 10.995 -1.49 11.49 -2 12 C-1 3.42857143 -1 3.42857143 0 0 Z " fill="#E0A94C" transform="translate(261,149)"/>
<path d="M0 0 C0.66 0.33 1.32 0.66 2 1 C-1.32307692 4.93846154 -1.32307692 4.93846154 -4.75 5.25 C-5.4925 5.1675 -6.235 5.085 -7 5 C-4.702779 3.25728062 -2.40133271 1.60088848 0 0 Z " fill="#E2AB4E" transform="translate(210,568)"/>
<path d="M0 0 C0.99 0.33 1.98 0.66 3 1 C0.69 3.31 -1.62 5.62 -4 8 C-4 4.09161134 -2.49432124 2.88405893 0 0 Z " fill="#E7B45D" transform="translate(108,428)"/>
<path d="M0 0 C0.66 0.33 1.32 0.66 2 1 C1.2884375 1.6496875 1.2884375 1.6496875 0.5625 2.3125 C-1.23686957 4.02309613 -1.23686957 4.02309613 -2 7 C-4.0625 7.6875 -4.0625 7.6875 -6 8 C-4.55746343 4.63408134 -2.66735273 2.48952921 0 0 Z " fill="#E2AC4E" transform="translate(475,198)"/>
<path d="M0 0 C4 1 4 1 4 1 Z " fill="#FFBF3F" transform="translate(137,418)"/>
<path d="M0 0 C0.99 0.495 0.99 0.495 2 1 C1.01 1.495 1.01 1.495 0 2 C0 1.34 0 0.68 0 0 Z " fill="#FF7F7F" transform="translate(205,232)"/>
<path d="M0 0 C2 1 2 1 2 1 Z " fill="#DFDF1F" transform="translate(171,586)"/>
<path d="M0 0 C2 1 2 1 2 1 Z " fill="#FFBF3F" transform="translate(177,585)"/>
<path d="" fill="#FFAA55" transform="translate(0,0)"/>
<path d="M0 0 C2 1 2 1 2 1 Z " fill="#FFBF3F" transform="translate(201,449)"/>
<path d="M0 0 C2 1 2 1 2 1 Z " fill="#FF946A" transform="translate(389,363)"/>
<path d="M0 0 C2 1 2 1 2 1 Z " fill="#FF7F7F" transform="translate(144,241)"/>
<path d="M0 0 C2 1 2 1 2 1 Z " fill="#FFBF3F" transform="translate(192,233)"/>
<path d="M0 0 C2 1 2 1 2 1 Z " fill="#FFFF00" transform="translate(45,78)"/>
<path d="M0 0 C2 1 2 1 2 1 Z " fill="#FF946A" transform="translate(93,27)"/>
<path d="" fill="#FFFF00" transform="translate(0,0)"/>
<path d="" fill="#FF7F7F" transform="translate(0,0)"/>
<path d="" fill="#FFFF00" transform="translate(0,0)"/>
<path d="" fill="#FFFF00" transform="translate(0,0)"/>
<path d="" fill="#AAAA55" transform="translate(0,0)"/>
<path d="" fill="#FF7F7F" transform="translate(0,0)"/>
<path d="" fill="#FFFF00" transform="translate(0,0)"/>
<path d="" fill="#FFFF00" transform="translate(0,0)"/>
<path d="" fill="#FFFF00" transform="translate(0,0)"/>
<path d="" fill="#BFBF3F" transform="translate(0,0)"/>
<path d="" fill="#FFFF00" transform="translate(0,0)"/>
<path d="" fill="#FF7F7F" transform="translate(0,0)"/>
<path d="" fill="#FFFF00" transform="translate(0,0)"/>
<path d="" fill="#FFAA55" transform="translate(0,0)"/>
<path d="" fill="#FF7F7F" transform="translate(0,0)"/>
<path d="" fill="#FFFF00" transform="translate(0,0)"/>
<path d="" fill="#FFFF00" transform="translate(0,0)"/>
<path d="" fill="#FFFF00" transform="translate(0,0)"/>
<path d="" fill="#FFFF00" transform="translate(0,0)"/>
<path d="" fill="#FF7F7F" transform="translate(0,0)"/>
<path d="" fill="#FFFF00" transform="translate(0,0)"/>
<path d="" fill="#FF7F7F" transform="translate(0,0)"/>
<path d="" fill="#FFAA55" transform="translate(0,0)"/>
<path d="" fill="#FFFF00" transform="translate(0,0)"/>
<path d="" fill="#FFFF00" transform="translate(0,0)"/>
<path d="" fill="#FF7F7F" transform="translate(0,0)"/>
<path d="" fill="#FF7F7F" transform="translate(0,0)"/>
<path d="" fill="#FFFF00" transform="translate(0,0)"/>
<path d="" fill="#FFFF00" transform="translate(0,0)"/>
<path d="" fill="#FF7F7F" transform="translate(0,0)"/>
<path d="" fill="#FF7F7F" transform="translate(0,0)"/>
<path d="" fill="#FFFF00" transform="translate(0,0)"/>
<path d="" fill="#FF7F7F" transform="translate(0,0)"/>
<path d="" fill="#FFFF00" transform="translate(0,0)"/>
<path d="" fill="#FFFF00" transform="translate(0,0)"/>
<path d="" fill="#FFFF00" transform="translate(0,0)"/>
<path d="" fill="#FF7F7F" transform="translate(0,0)"/>
<path d="" fill="#FFFF00" transform="translate(0,0)"/>
<path d="" fill="#FFFF00" transform="translate(0,0)"/>
<path d="" fill="#FF7F7F" transform="translate(0,0)"/>
<path d="" fill="#FFFF00" transform="translate(0,0)"/>
<path d="" fill="#FF7F7F" transform="translate(0,0)"/>
<path d="" fill="#FFFF00" transform="translate(0,0)"/>
<path d="" fill="#BFBF3F" transform="translate(0,0)"/>
<path d="" fill="#FF7F7F" transform="translate(0,0)"/>
<path d="" fill="#FFFF00" transform="translate(0,0)"/>
<path d="" fill="#FFFF00" transform="translate(0,0)"/>
<path d="" fill="#FFFF00" transform="translate(0,0)"/>
<path d="" fill="#FFAA55" transform="translate(0,0)"/>
<path d="" fill="#FF7F7F" transform="translate(0,0)"/>
<path d="" fill="#FF7F7F" transform="translate(0,0)"/>
<path d="" fill="#FFFF00" transform="translate(0,0)"/>
<path d="" fill="#FFFF00" transform="translate(0,0)"/>
<path d="" fill="#FFAA55" transform="translate(0,0)"/>
<path d="" fill="#FFFF00" transform="translate(0,0)"/>
<path d="" fill="#FFAA55" transform="translate(0,0)"/>
<path d="" fill="#FF7F7F" transform="translate(0,0)"/>
<path d="" fill="#FF7F7F" transform="translate(0,0)"/>
<path d="" fill="#FFFF00" transform="translate(0,0)"/>
<path d="" fill="#FFAA55" transform="translate(0,0)"/>
<path d="" fill="#FFFF00" transform="translate(0,0)"/>
<path d="" fill="#FFFF00" transform="translate(0,0)"/>
<path d="" fill="#FFAA55" transform="translate(0,0)"/>
<path d="" fill="#FFFF00" transform="translate(0,0)"/>
<path d="" fill="#FFFF00" transform="translate(0,0)"/>
<path d="" fill="#FFAA55" transform="translate(0,0)"/>
<path d="" fill="#FFAA55" transform="translate(0,0)"/>
<path d="" fill="#FFFF00" transform="translate(0,0)"/>
<path d="" fill="#FFFF00" transform="translate(0,0)"/>
<path d="" fill="#FFFF00" transform="translate(0,0)"/>
<path d="" fill="#FFFF00" transform="translate(0,0)"/>
<path d="" fill="#FFFF00" transform="translate(0,0)"/>
<path d="" fill="#FFAA55" transform="translate(0,0)"/>
<path d="" fill="#FFFF00" transform="translate(0,0)"/>
<path d="" fill="#FFFF00" transform="translate(0,0)"/>
<path d="" fill="#BFBF3F" transform="translate(0,0)"/>
<path d="" fill="#FFFF00" transform="translate(0,0)"/>
<path d="" fill="#DAB66D" transform="translate(0,0)"/>
<path d="" fill="#FF7F7F" transform="translate(0,0)"/>
<path d="" fill="#FFFF00" transform="translate(0,0)"/>
<path d="" fill="#FFFF00" transform="translate(0,0)"/>
<path d="" fill="#FFFF00" transform="translate(0,0)"/>
<path d="" fill="#FFFF00" transform="translate(0,0)"/>
<path d="" fill="#FFFF00" transform="translate(0,0)"/>
<path d="" fill="#FFAA55" transform="translate(0,0)"/>
<path d="" fill="#FF7F7F" transform="translate(0,0)"/>
<path d="" fill="#FFFF00" transform="translate(0,0)"/>
<path d="" fill="#FF7F7F" transform="translate(0,0)"/>
<path d="" fill="#FFFF00" transform="translate(0,0)"/>
<path d="" fill="#FFFF00" transform="translate(0,0)"/>
<path d="" fill="#FFFF00" transform="translate(0,0)"/>
<path d="" fill="#FF7F7F" transform="translate(0,0)"/>
<path d="" fill="#FFFF00" transform="translate(0,0)"/>
<path d="" fill="#FFFF00" transform="translate(0,0)"/>
<path d="" fill="#FFFF00" transform="translate(0,0)"/>
<path d="" fill="#FFFF00" transform="translate(0,0)"/>
<path d="" fill="#FFFF00" transform="translate(0,0)"/>
<path d="" fill="#FFFF00" transform="translate(0,0)"/>
<path d="" fill="#FFFF00" transform="translate(0,0)"/>
</svg>
